<?xml version="1.0" encoding="utf-8"?>
<!-- Generator: Adobe Illustrator 16.0.0, SVG Export Plug-In . SVG Version: 6.00 Build 0)  -->
<!DOCTYPE svg PUBLIC "-//W3C//DTD SVG 1.1//EN" "http://www.w3.org/Graphics/SVG/1.1/DTD/svg11.dtd">
<svg version="1.1" id="Layer_1" xmlns="http://www.w3.org/2000/svg" xmlns:xlink="http://www.w3.org/1999/xlink" x="0px" y="0px"
	 width="48px" height="48px" viewBox="0 0 48 48" enable-background="new 0 0 48 48" xml:space="preserve">
<g>
	<g>
		<circle fill="none" stroke="#000000" stroke-width="3" stroke-miterlimit="10" cx="24" cy="24" r="22.501"/>
	</g>
	<g>
		<g>
			<g>
				<path d="M23.062,19.643c0.33,0.456,0.493,1.002,0.493,1.638c0,0.656-0.166,1.182-0.497,1.58
					c-0.185,0.224-0.457,0.427-0.818,0.611c0.549,0.199,0.961,0.514,1.24,0.946s0.417,0.957,0.417,1.573
					c0,0.636-0.157,1.206-0.478,1.711c-0.201,0.334-0.456,0.616-0.759,0.844c-0.343,0.263-0.748,0.441-1.211,0.539
					c-0.466,0.097-0.973,0.146-1.516,0.146h-4.836V18.5h5.185C21.59,18.519,22.516,18.9,23.062,19.643z M17.236,20.364v2.366h2.609
					c0.466,0,0.844-0.088,1.135-0.266c0.289-0.177,0.435-0.491,0.435-0.942c0-0.5-0.191-0.831-0.575-0.99
					c-0.333-0.112-0.755-0.167-1.27-0.167H17.236z M17.236,24.506v2.861h2.606c0.466,0,0.828-0.063,1.087-0.189
					c0.468-0.234,0.704-0.679,0.704-1.339c0-0.559-0.229-0.942-0.683-1.151c-0.254-0.116-0.614-0.177-1.072-0.182H17.236z"/>
			</g>
			<g>
				<path d="M30.829,21.456c0.553,0.249,1.012,0.64,1.371,1.174c0.324,0.472,0.535,1.018,0.633,1.641
					c0.056,0.365,0.078,0.89,0.067,1.575h-5.777c0.032,0.795,0.309,1.354,0.827,1.674c0.319,0.199,0.699,0.299,1.146,0.299
					c0.471,0,0.856-0.121,1.151-0.363c0.162-0.133,0.303-0.312,0.426-0.547h2.119c-0.057,0.472-0.312,0.949-0.77,1.435
					c-0.711,0.771-1.706,1.157-2.984,1.157c-1.056,0-1.987-0.324-2.795-0.976c-0.806-0.65-1.211-1.711-1.211-3.178
					c0-1.375,0.364-2.428,1.094-3.162c0.729-0.733,1.675-1.101,2.836-1.101C29.653,21.084,30.275,21.208,30.829,21.456z
					 M27.725,23.248c-0.293,0.303-0.476,0.712-0.551,1.229h3.572c-0.037-0.552-0.221-0.97-0.553-1.254
					c-0.331-0.286-0.74-0.428-1.231-0.428C28.431,22.795,28.018,22.946,27.725,23.248z"/>
			</g>
		</g>
	</g>
</g>
</svg>
